<svg  viewBox="0 0 220 190" width="220" height="190" xmlns="http://www.w3.org/2000/svg">

    <!-- suelo -->
    <rect x="0" y="165" width="220" height="25" fill="#8b6b4a"/>

    <!-- maceta -->
    <rect x="155" y="140" width="25" height="18" rx="3" fill="#b87333"/>
    <!-- tallo y hojas -->
    <rect x="166" y="110" width="4" height="35" fill="#3d7a2e"/>
    <circle cx="168" cy="105" r="10" fill="#2e8b57"/>

    <!-- cabeza -->
    <circle cx="60" cy="55" r="17" fill="#fbd2a2"/>
    <!-- pelo -->
    <path d="M43 55 q17 -30 34 0 z" fill="#6d4c41"/>
    <!-- cuerpo -->
    <rect x="50" y="75" width="20" height="40" rx="3" fill="#ff79c6"/>
    <!-- brazos -->
    <rect x="44" y="78" width="5" height="25" rx="2" fill="#fbd2a2" transform="rotate(-20 44 78)"/>
    <rect x="71" y="78" width="5" height="25" rx="2" fill="#fbd2a2" transform="rotate(20 71 78)"/>
    <!-- piernas -->
    <rect x="54" y="115" width="6" height="28" fill="#4f4f4f"/>
    <rect x="64" y="115" width="6" height="28" fill="#4f4f4f"/>

    <!-- regadera -->
    <rect x="90" y="95" width="28" height="14" rx="3" fill="#1e90ff"/>
    <path d="M118 102 q8 5 0 10" stroke="#1e90ff" stroke-width="4" fill="none"/>

    <!-- gotas de agua -->
    <circle cx="128" cy="118" r="3" fill="#00bfff"/>
    <circle cx="134" cy="124" r="3" fill="#00bfff"/>
    <circle cx="140" cy="130" r="3" fill="#00bfff"/>

  </svg>
